<svg xmlns="http://www.w3.org/2000/svg" viewBox="0 0 30.314 19.205"><defs><linearGradient id="i" y2="-14.75" gradientUnits="userSpaceOnUse" x2="28.199" gradientTransform="matrix(.18888 -.61152 -.61152 -.18888 .04 15.382)" y1="-14.75" x1="10.747"><stop offset="0" stop-color="#b39345"/><stop offset="1" stop-color="#6e5720"/></linearGradient><linearGradient id="j" y2="-17.502" gradientUnits="userSpaceOnUse" x2="12.386" gradientTransform="matrix(.18872 -.61152 -.61152 -.18872 .04 15.382)" y1="-17.502" x1="7.807"><stop offset="0" stop-color="#997e38"/><stop offset="1" stop-color="#9c7f3a"/></linearGradient><clipPath id="a"><path d="M1-.636h24v16H1v-16z"/></clipPath><mask id="k"><g clip-path="url(#a)"><path d="M1-.636h24v16H1v-16z" fill-opacity=".121"/></g></mask><clipPath id="l"><path d="M1-.636h24v16H1v-16z"/></clipPath><clipPath id="m"><path d="M1 0h24v16H1V0z"/></clipPath><clipPath id="b"><path d="M12 11.364h5v4h-5v-4z"/></clipPath><mask id="n"><g clip-path="url(#b)"><path d="M12 11.364h5v4h-5v-4z" fill-opacity=".07"/></g></mask><clipPath id="o"><path d="M12 11.364h5v4h-5v-4z"/></clipPath><clipPath id="p"><path d="M12 12h5v4h-5v-4z"/></clipPath><clipPath id="c"><path d="M12 11.364h5v3h-5v-3z"/></clipPath><mask id="q"><g clip-path="url(#c)"><path d="M12 11.364h5v3h-5v-3z" fill-opacity=".102"/></g></mask><clipPath id="r"><path d="M12 11.364h5v3h-5v-3z"/></clipPath><clipPath id="s"><path d="M12 12h5v3h-5v-3z"/></clipPath><clipPath id="d"><path d="M12 12.364h4v1h-4v-1z"/></clipPath><mask id="t"><g clip-path="url(#d)"><path d="M12 12.364h4v1h-4v-1z" fill-opacity=".301"/></g></mask><clipPath id="u"><path d="M12 12.364h4v1h-4v-1z"/></clipPath><clipPath id="v"><path d="M12 13h4v1h-4v-1z"/></clipPath><clipPath id="e"><path d="M2-.636h23v14H2v-14z"/></clipPath><mask id="w"><g clip-path="url(#e)"><path d="M2-.636h23v14H2v-14z" fill-opacity=".191"/></g></mask><clipPath id="x"><path d="M2-.636h23v14H2v-14z"/></clipPath><clipPath id="y"><path d="M2 0h23v14H2V0z"/></clipPath><linearGradient id="z" y2="-10.054" gradientUnits="userSpaceOnUse" x2="18.37" gradientTransform="scale(.64 -.64) rotate(73.037 16.26 -11.976)" y1="-10.054" x1="16.828"><stop offset="0" stop-color="#856629"/><stop offset=".988" stop-color="#96782d"/><stop offset="1" stop-color="#96782d"/></linearGradient><linearGradient id="A" y2="-7.394" gradientUnits="userSpaceOnUse" x2="10.128" gradientTransform="matrix(.17584 -.61536 -.61536 -.17584 .04 15.382)" y1="-7.394" x1="9.582"><stop offset="0" stop-color="#7a5e26"/><stop offset=".988" stop-color="#96782d"/><stop offset="1" stop-color="#96782d"/></linearGradient><linearGradient id="B" y2="-15.044" gradientUnits="userSpaceOnUse" x2="16.101" gradientTransform="scale(.64 -.64) rotate(72.722 16.353 -11.976)" y1="-15.044" x1="14.923"><stop offset="0" stop-color="#8f6e2c"/><stop offset=".988" stop-color="#9e7f2f"/><stop offset="1" stop-color="#9e7f2f"/></linearGradient><linearGradient id="C" y2="-.731" gradientUnits="userSpaceOnUse" x2="21.43" gradientTransform="matrix(.18968 -.6112 -.6112 -.18968 .04 15.382)" y1="-.731" x1="20.671"><stop offset="0" stop-color="#7a5e26"/><stop offset=".988" stop-color="#96782d"/><stop offset="1" stop-color="#96782d"/></linearGradient><linearGradient id="D" y2="-14.24" gradientUnits="userSpaceOnUse" x2="23.33" gradientTransform="matrix(.19744 -.6088 -.6088 -.19744 .04 15.382)" y1="-14.24" x1="22.357"><stop offset="0" stop-color="#7a5e26"/><stop offset=".988" stop-color="#96782d"/><stop offset="1" stop-color="#96782d"/></linearGradient><linearGradient id="E" y2="-21.669" gradientUnits="userSpaceOnUse" x2="13.303" gradientTransform="scale(.64 -.64) rotate(73.74 16.053 -11.977)" y1="-21.669" x1="12.678"><stop offset="0" stop-color="#a17c31"/><stop offset=".988" stop-color="#a18130"/><stop offset="1" stop-color="#a18130"/></linearGradient><linearGradient id="F" y2="-24.666" gradientUnits="userSpaceOnUse" x2="17.986" gradientTransform="scale(.63997 -.63997) rotate(72.068 16.55 -11.977)" y1="-24.666" x1="17.092"><stop offset="0" stop-color="#91702d"/><stop offset=".988" stop-color="#a38332"/><stop offset="1" stop-color="#a38332"/></linearGradient><linearGradient id="G" y2="-19.65" gradientUnits="userSpaceOnUse" x2="20.285" gradientTransform="matrix(.19272 -.61032 -.61032 -.19272 .038 15.382)" y1="-19.65" x1="19.289"><stop offset="0" stop-color="#856629"/><stop offset=".988" stop-color="#96782d"/><stop offset="1" stop-color="#96782d"/></linearGradient><linearGradient id="H" y2="-23.537" gradientUnits="userSpaceOnUse" x2="21.108" gradientTransform="matrix(.18392 -.61296 -.61296 -.18392 .04 15.382)" y1="-23.537" x1="20.586"><stop offset="0" stop-color="#7a5e26"/><stop offset=".988" stop-color="#96782d"/><stop offset="1" stop-color="#96782d"/></linearGradient><linearGradient id="I" y2="-28.876" gradientUnits="userSpaceOnUse" x2="12.125" gradientTransform="matrix(.18392 -.61296 -.61296 -.18392 .04 15.382)" y1="-28.876" x1="11.342"><stop offset="0" stop-color="#ab8435"/><stop offset=".988" stop-color="#997b2e"/><stop offset="1" stop-color="#997b2e"/></linearGradient><linearGradient id="J" y2="-30.062" gradientUnits="userSpaceOnUse" x2="15.343" gradientTransform="matrix(.1852 -.61264 -.61264 -.1852 .04 15.382)" y1="-30.062" x1="14.22"><stop offset="0" stop-color="#96742e"/><stop offset=".988" stop-color="#a38332"/><stop offset="1" stop-color="#a38332"/></linearGradient><linearGradient id="K" y2="-29.13" gradientUnits="userSpaceOnUse" x2="16.957" gradientTransform="matrix(.18392 -.61296 -.61296 -.18392 .04 15.382)" y1="-29.13" x1="16.174"><stop offset="0" stop-color="#96742e"/><stop offset=".988" stop-color="#a38332"/><stop offset="1" stop-color="#a38332"/></linearGradient><linearGradient id="L" y2="-31.505" gradientUnits="userSpaceOnUse" x2="11.588" gradientTransform="scale(.64 -.64) rotate(73.815 16.032 -11.976)" y1="-31.505" x1="10.781"><stop offset="0" stop-color="#ab8435"/><stop offset=".988" stop-color="#997b2e"/><stop offset="1" stop-color="#997b2e"/></linearGradient><linearGradient id="M" y2="-24.206" gradientUnits="userSpaceOnUse" x2="10.361" gradientTransform="matrix(.19408 -.60984 -.60984 -.19408 .04 15.382)" y1="-24.206" x1="9.784"><stop offset="0" stop-color="#ab8435"/><stop offset=".988" stop-color="#997b2e"/><stop offset="1" stop-color="#997b2e"/></linearGradient><linearGradient id="N" y2="2.718" gradientUnits="userSpaceOnUse" x2="18.64" gradientTransform="matrix(.18968 -.6112 -.6112 -.18968 .04 15.382)" y1="2.718" x1="17.88"><stop offset="0" stop-color="#7a5e26"/><stop offset=".988" stop-color="#96782d"/><stop offset="1" stop-color="#96782d"/></linearGradient><linearGradient id="O" y2="-6.25" gradientUnits="userSpaceOnUse" x2="23.926" gradientTransform="scale(.64 -.64) rotate(73.815 16.032 -11.976)" y1="-6.25" x1="23.119"><stop offset="0" stop-color="#7a5e26"/><stop offset=".988" stop-color="#96782d"/><stop offset="1" stop-color="#96782d"/></linearGradient><clipPath id="f"><path d="M0 1.364h12v12H0v-12z"/></clipPath><mask id="P"><g clip-path="url(#f)"><path d="M0 1.364h12v12H0v-12z" fill-opacity=".07"/></g></mask><clipPath id="Q"><path d="M0 1.364h12v12H0v-12z"/></clipPath><clipPath id="R"><path d="M0 2h12v12H0V2z"/></clipPath><clipPath id="g"><path d="M0 4.364h8v8H0v-8z"/></clipPath><mask id="S"><g clip-path="url(#g)"><path d="M0 4.364h8v8H0v-8z" fill-opacity=".102"/></g></mask><clipPath id="T"><path d="M0 4.364h8v8H0v-8z"/></clipPath><clipPath id="U"><path d="M0 5h8v8H0V5z"/></clipPath><clipPath id="h"><path d="M2 7.364h3v4H2v-4z"/></clipPath><mask id="V"><g clip-path="url(#h)"><path d="M2 7.364h3v4H2v-4z" fill-opacity=".301"/></g></mask><clipPath id="W"><path d="M2 7.364h3v4H2v-4z"/></clipPath><clipPath id="X"><path d="M2 8h3v4H2V8z"/></clipPath></defs><path d="M20.262 15.157c2.41-.512 3.715-1.863 3.906-4.063.168-1.898-.418-3.742-1.762-5.535-1.215-1.578-2.793-2.797-4.734-3.648C15.559.993 12.723.383 9.16.087 5.641-.234 3.078.505 1.48 2.294-.016 3.938-.375 6.048.391 8.63c.535 1.812 1.972 3.082 4.32 3.808.937.301 2.965.629 6.082.992.703.063 2.176.524 4.414 1.375 1.621.598 3.305.715 5.055.352z" fill-rule="evenodd" fill="url(#i)" transform="matrix(1.25 0 0 -1.25 0 19.205)"/><path d="M13.223 13.016c.234-.086.554-.203.961-.355.363-.106.757-.16 1.183-.16.445 0 .801-.039 1.055-.125.191-.067.289-.129.289-.192-.426.149-1.102.137-2.016-.035-.472-.086-.843-.062-1.121.067l-.254.191c-.535-.215-.91-.184-1.121.094-.105.152-.32.246-.64.289a15.46 15.46 0 0 0-1.954.289c-.324.07-.695.09-1.117.062.621.078 1.391.172 2.301.289a11.45 11.45 0 0 1 1.504.289c-.254-.277-.254-.461 0-.546.172-.043.48-.094.93-.157z" fill-rule="evenodd" fill="url(#j)" transform="matrix(1.25 0 0 -1.25 0 19.205)"/><g mask="url(#k)" transform="matrix(1.25 0 0 -1.25 0 19.205)"><g clip-path="url(#l)"><g clip-path="url(#m)" transform="translate(0 -.636)"><path d="M21.23 9.922c.622.469 1.047.93 1.282 1.375.191.32.289.32.289 0 0-.488.043-.766.125-.828.152-.11.301-.024.449.254.172.3.258.691.258 1.183 0 .34-.16.844-.481 1.504A10.438 10.438 0 0 1 22 15.141c1.535-.856 2.27-2.243 2.207-4.161-.062-1.687-.66-3.285-1.793-4.8-1.215-1.578-2.793-2.797-4.734-3.649-2.114-.918-4.95-1.527-8.512-1.824-3.371-.301-5.867.371-7.488 2.016 1.664-.789 3.711-1.086 6.144-.895 1.641.125 2.996.445 4.063.957.578.277 1.195.629 1.855 1.059.555.211 1.238.554 2.051 1.023.168.106.555.192 1.152.254.555.067.883.152.989.258l.609.703a2.963 2.963 0 0 0-.512.227c-.34.148-.449.242-.32.285.062.023.191.097.383.226.152.125.363.223.64.285.364.11.586.215.672.321.11.086.16.258.16.512 0 .214-.222.374-.671.48l-.672.129 1.441.512c.469.148.992.437 1.566.863z" fill-rule="evenodd"/></g></g></g><g mask="url(#n)" transform="matrix(1.25 0 0 -1.25 0 19.205)"><g clip-path="url(#o)"><g clip-path="url(#p)" transform="translate(0 -.636)"><path d="M16.312 13.652a.682.682 0 0 0 .415-.48c.043-.192.043-.309 0-.352 0 .063-.094.125-.289.192-.254.086-.606.129-1.055.129-.426 0-.821.05-1.184.156-.406.152-.726.269-.961.355-.445.063-.758.118-.926.16-.257.083-.257.266 0 .543h-.066l.707.192 1.246.512a.855.855 0 0 0 .418-.129c.149-.063.211-.137.192-.223a2.16 2.16 0 0 0-.036-.449c0-.02.098-.02.289 0 .301.023.598-.074.899-.285l.094-.129c.086-.11.172-.172.257-.192z" fill-rule="evenodd" fill="#ffe5a3"/></g></g></g><g mask="url(#q)" transform="matrix(1.25 0 0 -1.25 0 19.205)"><g clip-path="url(#r)"><g clip-path="url(#s)" transform="translate(0 -.636)"><path d="M14.629 13.121a1.543 1.543 0 0 0-.543.195c-.34.235-.715.352-1.121.352-.383 0-.629.062-.735.191-.062.106-.031.266.098.481.211-.086.36-.098.445-.031h.45c.043 0 .062-.067.062-.196 0-.105.11-.168.32-.191.258-.02.418-.043.481-.063.043-.023.172-.097.383-.222.172-.086.289-.16.355-.227.043-.043.192-.074.446-.094.406-.066.898-.238 1.472-.511-.683.254-1.195.371-1.535.351-.34-.023-.535-.035-.578-.035z" fill-rule="evenodd" fill="#ffe39e"/></g></g></g><g mask="url(#t)" transform="matrix(1.25 0 0 -1.25 0 19.205)"><g clip-path="url(#u)"><g clip-path="url(#v)" transform="translate(0 -.636)"><path d="M13.789 13.5l-1.152.125a.626.626 0 0 0-.414.227l-.063.128c.082-.085.168-.117.254-.097.277.062.543.062.801 0 .512-.129.82-.235.926-.321.214-.171.566-.308 1.058-.414-.172-.128-.383-.14-.64-.035a1.323 1.323 0 0 1-.77.387z" fill-rule="evenodd" fill="#ffd670"/></g></g></g><g mask="url(#w)" transform="matrix(1.25 0 0 -1.25 0 19.205)"><g clip-path="url(#x)"><g clip-path="url(#y)" transform="translate(0 -.636)"><path d="M24.008 11.516l-.098 1.504c.406-1.004.449-2.168.129-3.489a9.168 9.168 0 0 0-1.601-3.359c-1.215-1.578-2.793-2.797-4.735-3.649C15.59 1.605 12.754.996 9.191.699 6.418.465 4.219.891 2.598 1.977c.875-.469 1.941-.754 3.203-.864 1.195-.105 2.719-.031 4.574.227a34.1 34.1 0 0 1 3.969.734 9.864 9.864 0 0 1 2.527.992c.449.258 1.012.598 1.695 1.024.622.344.993.566 1.122.672.042.129.097.277.16.449.129.34.265.598.414.766.109.128.437.429.992.898.555.492.887.801.992.926l.992 1.187c.535.766.789 1.61.77 2.528z" fill-rule="evenodd"/></g></g></g><path d="M9.414 7.157c.856-.149 1.078-.434.672-.863-.426-.45-.809-.563-1.152-.352-.254.152-.329.395-.223.738.129.36.363.52.703.477z" fill-rule="evenodd" fill="url(#z)" transform="matrix(1.25 0 0 -1.25 0 19.205)"/><path d="M6.344 10.872c.34.019.426-.067.254-.258-.168-.215-.34-.289-.512-.223-.148.043-.18.129-.094.254.063.129.18.203.352.227z" fill-rule="evenodd" fill="url(#A)" transform="matrix(1.25 0 0 -1.25 0 19.205)"/><path d="M12.199 9.333c.555.086.735-.075.543-.481-.211-.426-.512-.594-.894-.511-.344.085-.457.265-.352.546.106.254.34.407.703.446z" fill-rule="evenodd" fill="url(#B)" transform="matrix(1.25 0 0 -1.25 0 19.205)"/><path d="M4.582 2.934c.469-.105.566-.246.289-.414-.301-.172-.566-.172-.801 0-.211.149-.234.266-.062.348.148.09.34.109.574.066z" fill-rule="evenodd" fill="url(#C)" transform="matrix(1.25 0 0 -1.25 0 19.205)"/><path d="M13.223 4.758c.578.063.738-.085.48-.449-.254-.34-.555-.48-.894-.414-.258.063-.301.223-.129.481.148.234.328.359.543.382z" fill-rule="evenodd" fill="url(#D)" transform="matrix(1.25 0 0 -1.25 0 19.205)"/><path d="M15.719 11.575c.32.019.426-.074.32-.289-.129-.215-.309-.289-.543-.223-.215.043-.289.137-.226.289.066.125.214.199.449.223z" fill-rule="evenodd" fill="url(#E)" transform="matrix(1.25 0 0 -1.25 0 19.205)"/><path d="M18.277 9.942c.555.234.789.172.703-.191-.105-.383-.328-.567-.671-.543-.278.019-.395.136-.348.351a.57.57 0 0 0 .316.383z" fill-rule="evenodd" fill="url(#F)" transform="matrix(1.25 0 0 -1.25 0 19.205)"/><path d="M15.879 7.575c.578.062.769-.074.578-.418-.215-.34-.535-.488-.961-.449-.387.066-.48.226-.289.484a.883.883 0 0 0 .672.383z" fill-rule="evenodd" fill="url(#G)" transform="matrix(1.25 0 0 -1.25 0 19.205)"/><path d="M18.309 7.192c.32 0 .429-.086.32-.258-.106-.172-.277-.234-.512-.191-.191.043-.254.129-.191.258a.439.439 0 0 0 .383.191z" fill-rule="evenodd" fill="url(#H)" transform="matrix(1.25 0 0 -1.25 0 19.205)"/><path d="M19.781 13.844c.364.067.504-.043.418-.316-.086-.277-.234-.387-.449-.32-.172.062-.246.179-.223.351.02.168.106.266.254.285z" fill-rule="evenodd" fill="url(#I)" transform="matrix(1.25 0 0 -1.25 0 19.205)"/><path d="M21.414 12.469c.32-.086.344-.308.063-.671-.278-.383-.512-.481-.704-.29-.168.172-.148.395.067.676.211.254.402.352.574.285z" fill-rule="evenodd" fill="url(#J)" transform="matrix(1.25 0 0 -1.25 0 19.205)"/><path d="M20.902 10.934c.278.02.395-.074.352-.289-.063-.191-.203-.308-.418-.351-.191-.043-.254.054-.191.289.046.234.128.351.257.351z" fill-rule="evenodd" fill="url(#K)" transform="matrix(1.25 0 0 -1.25 0 19.205)"/><path d="M21.094 14.454c.215.023.375-.02.48-.129a.365.365 0 0 0 .098-.383c-.043-.105-.184-.055-.418.16-.215.192-.266.309-.16.352z" fill-rule="evenodd" fill="url(#L)" transform="matrix(1.25 0 0 -1.25 0 19.205)"/><path d="M16.422 14.071c.129.105.269.16.418.16.129-.023.215-.066.254-.129.043-.062.035-.136-.032-.222a.473.473 0 0 0-.351-.129.432.432 0 0 0-.32.129c-.063.082-.055.148.031.191z" fill-rule="evenodd" fill="url(#M)" transform="matrix(1.25 0 0 -1.25 0 19.205)"/><path d="M1.895 3.993c.363-.152.437-.301.226-.449-.195-.153-.375-.172-.547-.067-.129.11-.16.235-.094.387.086.168.223.211.415.129z" fill-rule="evenodd" fill="url(#N)" transform="matrix(1.25 0 0 -1.25 0 19.205)"/><path d="M7.816 2.36c.469.063.684-.012.641-.227-.023-.191-.16-.316-.418-.382-.191-.02-.32.066-.383.257-.066.211-.011.329.16.352z" fill-rule="evenodd" fill="url(#O)" transform="matrix(1.25 0 0 -1.25 0 19.205)"/><g mask="url(#P)" transform="matrix(1.25 0 0 -1.25 0 19.205)"><g clip-path="url(#Q)"><g clip-path="url(#R)" transform="translate(0 -.636)"><path d="M6.664 13.02c2.152-.192 3.508-1.102 4.063-2.723.468-1.32.375-2.539-.289-3.645-.833-1.41-1.887-2.445-3.168-3.105-1.641-.852-3.372-.875-5.184-.063-.852.383-1.398 1.192-1.633 2.43-.297 1.535.086 3.199 1.152 4.992.387.641 1.227 1.184 2.528 1.633 1.109.363 1.953.523 2.531.481z" fill-rule="evenodd" fill="#ffebba"/></g></g></g><g mask="url(#S)" transform="matrix(1.25 0 0 -1.25 0 19.205)"><g clip-path="url(#T)"><g clip-path="url(#U)" transform="translate(0 -.636)"><path d="M3.336 11.668c1.172.426 2.144.586 2.91.48.856-.128 1.301-.707 1.344-1.73.023-.555-.051-1.27-.223-2.145-.019-.425-.566-.949-1.633-1.566-1.023-.641-1.886-.973-2.589-.992-.684-.02-1.227.172-1.633.574-.383.406-.555.961-.512 1.664.062 1.027.363 1.891.895 2.594.425.574.906.949 1.441 1.121z" fill-rule="evenodd" fill="#ffe39e"/></g></g></g><g mask="url(#V)" transform="matrix(1.25 0 0 -1.25 0 19.205)"><g clip-path="url(#W)"><g clip-path="url(#X)" transform="translate(0 -.636)"><path d="M4.801 10.426c.297-.598.234-1.078-.196-1.438-.488-.429-.98-.672-1.468-.738-.492-.062-.825.066-.992.387-.172.297-.086.746.253 1.343.321.594.661.95 1.024 1.055.621.192 1.078-.012 1.379-.609z" fill-rule="evenodd" fill="#ffd670"/></g></g></g></svg>