<?xml version="1.0" encoding="utf-8"?>
<!-- Svg Vector Icons : http://www.onlinewebfonts.com/icon -->
<!DOCTYPE svg PUBLIC "-//W3C//DTD SVG 1.1//EN" "http://www.w3.org/Graphics/SVG/1.1/DTD/svg11.dtd">
<svg version="1.1" xmlns="http://www.w3.org/2000/svg" xmlns:xlink="http://www.w3.org/1999/xlink" x="0px" y="0px" viewBox="0 0 1000 1000" enable-background="new 0 0 1000 1000" xml:space="preserve">
<metadata> Svg Vector Icons : http://www.onlinewebfonts.com/icon </metadata>
<g fill="#b5a642"><path d="M500,871.9c-24,0-47.1-0.6-69.7-1.4c-7.5,12.4-12.1,22.2-12.1,37.7c0,45.1,36.6,81.8,81.8,81.8c45.1,0,81.8-36.7,81.8-81.8c0-15.5-4.6-25.3-12.1-37.7C547.1,871.4,524.1,871.9,500,871.9z"/><g><path d="M500,642.4c211.1,0,300.1-80.6,300.1-80.6l-54.8-94.9c0-33.7,0-66.9,0-100.6c0-125.1-120.3-192.7-245.3-192.7s-245.3,67.6-245.3,192.7c0,33.7,0,66.9,0,100.6L202,552.9C202,552.9,289,642.4,500,642.4z"/><path d="M837.9,610c0,0-117,96.7-337.9,96.7c-220.9,0-337.9-96.7-337.9-96.7l-69.9,85.1c0,0,100.1,131.3,407.8,131.3c307.7,0,407.8-131.3,407.8-131.3L837.9,610z"/></g><path d="M581.8,131.4c0,22.6-18.4,40.9-40.9,40.9h-81.8c-22.6,0-40.9-18.3-40.9-40.9V90.6c0-22.6,18.3-40.9,40.9-40.9h81.8c22.5,0,40.9,18.3,40.9,40.9V131.4z"/><path d="M786.2,211.9c-81.8,2.2-243.4-82-243.4-82s79.2,0.5,132.9-16.4C622.1,100.4,550.5,102,545.4,102C639,21.8,768.3,8.9,786.2,10.1c0,20.8-7.9,90.1-7.9,103.2C778.3,126.4,786.2,188.3,786.2,211.9z"/><path d="M213.9,211.9c81.8,2.2,243.4-82,243.4-82s-79.2,0.5-132.9-16.4C378,100.3,449.6,102,454.7,102C361,21.8,231.8,8.9,213.9,10.1c0,20.8,7.9,90.1,7.9,103.2C221.8,126.4,213.9,188.3,213.9,211.9z"/></g>
</svg>
